<?xml version="1.0" encoding="UTF-8"?>
<svg id="Layer_2" data-name="Layer 2" xmlns="http://www.w3.org/2000/svg" viewBox="0 0 1332.55 211.1">
  <defs>
    <style>
      .cls-1 {
        fill: #000;
        stroke-width: 0px;
      }
    </style>
  </defs>
  <g id="Layer_1-2" data-name="Layer 1">
    <g>
      <g>
        <path class="cls-1" d="M1062.62,25.94c21.16,1.59,42.59,16.31,48.4,37.34,8.24,31.96-28.42,44.62-59.29,43.8-33.76-.27-55.17-20.38-38.6-54.01,8.95-18.8,28.95-28.66,49-27.17l.49.04ZM1052.36,13.66c-14.73.78-28.5,4.71-38.72,14.26-16.46,16.31-33.54,48.9-16.65,70.15,19.43,23.95,55.25,26.06,84.76,21.04,39.68-6,56.2-34.47,35.86-71.88-12.68-25.03-37.26-35.2-64.75-33.59l-.51.03Z"/>
        <ellipse class="cls-1" cx="1032.38" cy="72.16" rx="6.18" ry="14.83"/>
        <ellipse class="cls-1" cx="1059.57" cy="72.16" rx="6.18" ry="14.83"/>
      </g>
      <g>
        <path class="cls-1" d="M9.25,162.75c32.33-4.5,60.41-6.75,84.25-6.75,29,0,48.25,1.09,57.75,3.25,2.16.5,3.88,1.46,5.12,2.88,1.25,1.42,1.79,3.04,1.62,4.88-.34,3.67-1.46,6.09-3.38,7.25-1.92,1.17-4.46,1.59-7.62,1.25-5.67-.5-13.12-.96-22.38-1.38-9.25-.41-17.04-.62-23.38-.62-9.34,0-18.5.25-27.5.75-9.84.5-21.17,1.34-34,2.5-12.84,1.17-22.92,2.25-30.25,3.25-2.84.34-5.12-.25-6.88-1.75s-2.62-3.83-2.62-7c0-4.5,3.08-7.33,9.25-8.5ZM12.75,103.62c1.66-1.75,3.75-2.62,6.25-2.62,3.33-.16,8.25-.66,14.75-1.5,3.5-.5,6.83-.75,10-.75-.5-.66-1.09-1.83-1.75-3.5-1.5-5.83-2.34-9.71-2.5-11.62-.17-1.91-.34-6.04-.5-12.38v-12.5c.33-2.5,1.29-4.5,2.88-6,1.58-1.5,3.54-2.25,5.88-2.25,2.66,0,4.66.75,6,2.25,1.33,1.5,2,3.67,2,6.5v7.5c0,5.67.12,9.84.38,12.5.25,2.67.88,6.09,1.88,10.25l.5,3.25c0,1.84-.42,3.59-1.25,5.25,10.83-.5,19.75-.75,26.75-.75h13c-1.67-1.66-2.5-3.83-2.5-6.5l.5-13,1-18.75c.33-2.5,1.33-4.46,3-5.88,1.66-1.41,3.75-2.12,6.25-2.12,3,0,5.33,1.04,7,3.12,1.66,2.09,2.33,4.46,2,7.12l-.75,6.5c-1,11.67-1.59,20.09-1.75,25.25,0,1.84-.75,3.34-2.25,4.5,14.5.5,23.5.75,27,.75,6.83,0,10.25,2.84,10.25,8.5s-3.17,8.5-9.5,8.5l-42-.5h-12.75c-12,0-22.17.25-30.5.75-13.67,1.17-24.42,2.25-32.25,3.25-2.84.34-5.12-.38-6.88-2.12s-2.62-3.96-2.62-6.62c0-2.5.83-4.62,2.5-6.38ZM17.62,28.62c1.58-1.75,3.54-2.71,5.88-2.88l41-1,31.5.25,18.5-.25,15.5-.25c2.66,0,4.83.79,6.5,2.38,1.66,1.59,2.5,3.71,2.5,6.38,0,2.17-.67,4.04-2,5.62-1.34,1.59-3.09,2.46-5.25,2.62-10.5.84-25.92,1.25-46.25,1.25l-29-.25c-11.17,0-21.75.34-31.75,1-2.67.17-4.92-.62-6.75-2.38-1.84-1.75-2.75-3.88-2.75-6.38,0-2.33.79-4.38,2.38-6.12Z"/>
        <path class="cls-1" d="M196.62,80c-1.25-1.5-1.88-3.33-1.88-5.5,0-2.5.79-4.62,2.38-6.38,1.58-1.75,3.54-2.71,5.88-2.88l22.5-.75c17.5,0,32.33-.25,44.5-.75l18.75-.5c0-1.33.08-2.54.25-3.62.16-1.08.33-2.12.5-3.12.33-3.66.66-9.75,1-18.25l-32,.5c-9.67.34-18.17.5-25.5.5-13.67,0-24.17.09-31.5.25-2.5,0-4.67-.83-6.5-2.5-1.84-1.66-2.75-3.75-2.75-6.25s.79-4.58,2.38-6.25c1.58-1.66,3.62-2.66,6.12-3,9.66-.33,17-.5,22-.5,13,0,24.91-.08,35.75-.25l35.5-.5c9.33,0,14.33,4.59,15,13.75,0,2.5-.09,4.09-.25,4.75-.5,4.17-1.09,10.92-1.75,20.25l-.75,7c1.83,1.5,2.75,3.59,2.75,6.25,0,2.84-.92,5.04-2.75,6.62-1.84,1.59-4.5,2.38-8,2.38l-15.75.25c-6,.17-12.92.25-20.75.25l-41.5,1c0,13-.17,22.17-.5,27.5l46-3c19.33-1.33,30.16-2.25,32.5-2.75,2.83-.33,5.21.04,7.12,1.12,1.91,1.09,3.21,2.88,3.88,5.38l.5,3c0,2.17-.59,4-1.75,5.5-1.17,1.5-2.67,2.42-4.5,2.75-7.5.84-18.25,1.67-32.25,2.5l-8.25.5c1,1.67,1.33,3.75,1,6.25-1.34,12.67-2.25,22.75-2.75,30.25l11.25-.25c17.33,0,35.83.92,55.5,2.75,2.16.5,3.83,1.5,5,3,1.16,1.5,1.75,3.17,1.75,5,0,2.84-.88,5.09-2.62,6.75-1.75,1.67-3.96,2.5-6.62,2.5-1.5,0-2.5-.08-3-.25-17.5-1.66-33.25-2.5-47.25-2.5-9.67,0-17.92.09-24.75.25-30.84,2.17-52.25,4-64.25,5.5-3,.34-5.34-.21-7-1.62-1.67-1.41-2.5-3.79-2.5-7.12,0-2.33.83-4.21,2.5-5.62,1.66-1.41,3.91-2.38,6.75-2.88,17.33-2.66,36-4.33,56-5l1.25-18c.5-5,1.08-10.41,1.75-16.25l.25-1.5-28.25,2.25c-5.5,0-9.46-1.5-11.88-4.5-2.42-3-3.62-7.58-3.62-13.75l-.25-27.5c-1.84-.5-3.38-1.5-4.62-3Z"/>
        <path class="cls-1" d="M417.99,34.75l-22.75,2-26.5,2.25c-2.67.17-4.88-.58-6.62-2.25-1.75-1.66-2.62-3.91-2.62-6.75s1-5.08,3-6.75c2-1.66,4.5-2.58,7.5-2.75,32-2.33,50.83-3.83,56.5-4.5l2.75-.25c3.83,0,6.91.96,9.25,2.88,2.33,1.92,3.5,4.79,3.5,8.62-.17,3.17-1.59,7-4.25,11.5-8.84,14.5-17.59,26.92-26.25,37.25,8.5,8,20.33,16.42,35.5,25.25,3.66,2.5,5.5,5.25,5.5,8.25,0,2.84-.96,5.04-2.88,6.62-1.92,1.59-4.04,2.38-6.38,2.38-1.17,0-2.42-.33-3.75-1-6.5-3.16-13.38-7.41-20.62-12.75-7.25-5.33-13.46-10.66-18.62-16-6.17,6.84-14.25,15.25-24.25,25.25l-5.75,6c-2.34,2-4.59,3-6.75,3-2.5,0-4.92-1.25-7.25-3.75-1.5-1.83-2.25-3.75-2.25-5.75,0-2.66,1.25-5.25,3.75-7.75,30.33-30.66,50.41-54.33,60.25-71ZM396.62,147.38c1.25-1.58,3.04-2.54,5.38-2.88,16-2.33,27.41-3.83,34.25-4.5,6.83-.66,19.16-1.5,37-2.5,2.16-.16,5.5-.25,10-.25,1.33.17,4.16.25,8.5.25l8.5.25c5.33,0,9.38,1.5,12.12,4.5s4.12,7.17,4.12,12.5c0,3-.59,7.42-1.75,13.25-2.84,17.84-4.92,29.41-6.25,34.75-1.34,4-4,6-8,6s-6.46-1-7.88-3c-1.42-2-1.88-5-1.38-9,.83-4.67,1.91-11.62,3.25-20.88,1.33-9.25,2.16-16.12,2.5-20.62l-8.5-.25c-12,0-25.92.59-41.75,1.75-15.84,1.17-29.5,2.75-41,4.75-3.17.34-5.79-.29-7.88-1.88-2.09-1.58-3.12-3.88-3.12-6.88,0-2,.62-3.79,1.88-5.38ZM434.24,62.38c1.33-1.58,3.41-2.54,6.25-2.88l25.5-1.75c.5-13.5,1.5-25.91,3-37.25.33-2.5,1.33-4.46,3-5.88,1.66-1.41,3.66-2.12,6-2.12,2.66,0,4.91,1,6.75,3,1.83,2,2.5,4.42,2,7.25-1.34,13.5-2.25,26.5-2.75,39v19.25l.25,31.5c0,3-.75,5.38-2.25,7.12s-3.67,2.62-6.5,2.62c-2.5,0-4.54-.71-6.13-2.12-1.59-1.41-2.46-3.29-2.62-5.62-.84-11.33-1.25-22.5-1.25-33.5v-5.25c-3.34.34-5.75.5-7.25.5-6.67.67-12.67,1.09-18,1.25-2,0-3.84-.83-5.5-2.5-1.67-1.66-2.5-3.66-2.5-6,0-2.83.66-5.04,2-6.62ZM508.99,22.25l.5-7c.16-2.16,1.08-4,2.75-5.5,1.66-1.5,3.66-2.25,6-2.25,2.83,0,5.08,1.04,6.75,3.12,1.66,2.09,2.41,4.62,2.25,7.62-1.67,22.67-2.5,41.5-2.5,56.5l.5,22.5.5,21c0,3.17-.79,5.62-2.38,7.38-1.59,1.75-3.88,2.62-6.88,2.62-2.17,0-4-.75-5.5-2.25s-2.34-3.41-2.5-5.75c-1-10-1.59-20.08-1.75-30.25-.17-2.5-.25-8-.25-16.5,0-13,.83-30.08,2.5-51.25Z"/>
        <path class="cls-1" d="M561.24,162.75c32.33-4.5,60.41-6.75,84.25-6.75,29,0,48.25,1.09,57.75,3.25,2.16.5,3.88,1.46,5.12,2.88,1.25,1.42,1.79,3.04,1.62,4.88-.34,3.67-1.46,6.09-3.38,7.25-1.92,1.17-4.46,1.59-7.62,1.25-5.67-.5-13.12-.96-22.38-1.38-9.25-.41-17.04-.62-23.38-.62-9.34,0-18.5.25-27.5.75-9.84.5-21.17,1.34-34,2.5-12.84,1.17-22.92,2.25-30.25,3.25-2.84.34-5.12-.25-6.88-1.75s-2.62-3.83-2.62-7c0-4.5,3.08-7.33,9.25-8.5ZM574.49,115.5c0-2.16.33-4.5,1-7,.5-3.33,1.75-14,3.75-32l-2.75.25-2.75.25c-5,0-8-2.08-9-6.25-.17-.5-.25-1.41-.25-2.75,0-2,.5-3.75,1.5-5.25s2.5-2.58,4.5-3.25c1.5-.5,3.79-.91,6.88-1.25,3.08-.33,5.62-.5,7.62-.5,12.16-1,27.25-1.83,45.25-2.5l21-.5,23.75-.5c3.16-.33,5.91.34,8.25,2,2.33,1.67,3.5,3.92,3.5,6.75,0,3.17-1.09,5.54-3.25,7.12-2.17,1.59-5.17,2.38-9,2.38-24.34.17-49.84,1-76.5,2.5-2.17,15.84-3.42,27.25-3.75,34.25,6.33-.66,14.46-1.33,24.38-2,9.91-.66,17.12-1,21.62-1,10.5,0,19.25-.16,26.25-.5,5-.33,8.91-.33,11.75,0,2.5.17,4.62,1.12,6.38,2.88s2.62,3.88,2.62,6.38c0,3-.96,5.21-2.88,6.62-1.92,1.42-4.38,2.12-7.38,2.12-8.34,0-14.25.09-17.75.25-3.34.17-9.34.25-18,.25s-25.09,1.25-48.25,3.75c-3.5.5-5.84.75-7,.75-2.84,0-5.34-.91-7.5-2.75-2.67-2.5-4-6-4-10.5ZM576.74,22l5.25-1c.66-.16,4.5-.66,11.5-1.5,19.66-1.66,36.75-2.5,51.25-2.5,10,0,18.91.34,26.75,1,1.5.34,2.88,1.38,4.12,3.12s1.88,3.62,1.88,5.62c0,1.17-.25,2.25-.75,3.25-.67,1.84-1.79,3.12-3.38,3.88-1.59.75-3.71,1.12-6.38,1.12-3.5,0-6.34-.08-8.5-.25l-18.75-.25c-11.17,0-23.67.75-37.5,2.25l-15.75,1.75-5.25.5c-7,.67-10.5-2.25-10.5-8.75,0-4.5,2-7.25,6-8.25Z"/>
        <path class="cls-1" d="M791.98,96c1.83-1.66,4-2.66,6.5-3l20.5-2.75c12.5-1.5,34.25-2.5,65.25-3,7.83,0,19,.29,33.5.88,14.5.59,24.33,1.38,29.5,2.38,2,.34,3.62,1.17,4.88,2.5,1.25,1.34,1.88,2.84,1.88,4.5,0,4.17-1.04,6.96-3.12,8.38-2.09,1.42-5.04,1.96-8.88,1.62-18.17-1.5-35.59-2.25-52.25-2.25s-29.17.25-37.5.75c-8.67.5-22.67,1.75-42,3.75l-11.75,1.5c-2.5.34-4.71-.38-6.62-2.12-1.92-1.75-2.88-4.12-2.88-7.12.16-2.33,1.16-4.33,3-6ZM816.23,79.75c-1.67,0-3.42-.58-5.25-1.75-2.34-1.83-3.5-4.16-3.5-7,0-1.5.41-3.08,1.25-4.75l3.25-4.75,6-8.25c15.5-20.83,28.5-37.58,39-50.25,1.83-2,4-3,6.5-3,2.66,0,4.91.84,6.75,2.5,1.5,1.5,2.25,3.59,2.25,6.25,0,2.5-.75,4.75-2.25,6.75l-.5.5,1.25,1c5.5,5.5,12.88,11.62,22.12,18.38s20.04,13.38,32.38,19.88c5,2.34,7.5,5.34,7.5,9,0,1.34-.42,2.84-1.25,4.5-1.67,3.34-4.42,5-8.25,5-1.67,0-3.17-.41-4.5-1.25-8.67-4.66-19.5-11.33-32.5-20-6.34-4.5-11.71-8.54-16.12-12.12-4.42-3.58-8.29-7.29-11.62-11.12-6,7.34-14.59,18.67-25.75,34l-8.25,11.25c-2.34,3.5-5.17,5.25-8.5,5.25ZM817.61,127.5c1.58-1.66,3.62-2.58,6.12-2.75,7.16-.16,15.83-.25,26-.25l29.25-.5,36.5-.5c10.16,0,15.25,4.34,15.25,13,0,2-.25,3.92-.75,5.75-1.84,9.34-3.42,15.59-4.75,18.75.66,1.17,1,2.42,1,3.75,0,2.67-.96,4.84-2.88,6.5-1.92,1.67-4.54,2.5-7.88,2.5l-44.25.5-29.5,1c.16,2.34.66,4.34,1.5,6,.83,1.67,2.16,3.42,4,5.25,1.66,1.5,4,2.75,7,3.75s5.91,1.58,8.75,1.75c4.16.16,10,.08,17.5-.25s12.66-.83,15.5-1.5c2.66-.33,4.96.38,6.88,2.12,1.91,1.75,2.88,4.04,2.88,6.88,0,4.5-2.75,7.5-8.25,9-.34.16-3.75.5-10.25,1l-6.75.75h-18c-5.84-.34-11.34-1.54-16.5-3.62-5.17-2.09-9.42-4.79-12.75-8.12-3.67-3.67-6.34-7.29-8-10.88-1.67-3.58-2.5-7.54-2.5-11.88v-.75c-1.5-.66-2.71-1.71-3.62-3.12-.92-1.41-1.38-3.04-1.38-4.88,0-2.33.79-4.33,2.38-6,1.58-1.66,3.54-2.58,5.88-2.75l22.5-.75c12.16,0,29.25-.25,51.25-.75l8-.5,3-14.75-50.25.75-21,.25c-3.67.17-8.67.25-15,.25-2.67,0-4.88-.79-6.62-2.38-1.75-1.58-2.62-3.71-2.62-6.38,0-2.5.79-4.58,2.38-6.25Z"/>
        <path class="cls-1" d="M1184.23,97.62c-2.17-5.25-3.25-10.96-3.25-17.12,0-14.83,4.58-28.66,13.75-41.5,3.33-4.5,7.21-8.58,11.62-12.25,4.41-3.66,8.29-5.5,11.62-5.5,1.83,0,3.5.59,5,1.75l4-.5c5.16,0,10.46,1.46,15.88,4.38,5.41,2.92,10.29,6.79,14.62,11.62,3.66,4.67,6.16,9.09,7.5,13.25,1.33,4.17,2,8.5,2,13,0,6.84-1.59,13.62-4.75,20.38-3.17,6.75-7.5,12.12-13,16.12-11.84,8.84-23.5,13.25-35,13.25-8.17,0-14.84-1.66-20-5-4.5-2.66-7.84-6.62-10-11.88ZM1201.11,87.75c.58,1.67,1.62,3.25,3.12,4.75,2.5,2.5,6.16,3.75,11,3.75,7.83,0,15.41-3.33,22.75-10,7-6.33,10.5-13.58,10.5-21.75,0-2-.09-3.5-.25-4.5-.34-3-1.79-6-4.38-9-2.59-3-5.79-5.41-9.62-7.25-3.67-1.66-7.67-2.25-12-1.75-2,.17-4.12.96-6.38,2.38-2.25,1.42-3.96,2.88-5.12,4.38-7.17,10-10.75,20.17-10.75,30.5.16,4,.54,6.84,1.12,8.5ZM1219.86,143.62c1.91-1.75,4.12-2.62,6.62-2.62,2.66,0,4.91.62,6.75,1.88,1.83,1.25,2.75,2.71,2.75,4.38,1.83-1.83,4.75-2.75,8.75-2.75,10.83,0,20.16-.33,28-1,6.83-.5,15.04-.91,24.62-1.25,9.58-.33,17.38-.5,23.38-.5,4.33.17,7.46,1.38,9.38,3.62,1.91,2.25,2.71,5.46,2.38,9.62l-2.75,27.5-.75,14.25c-.17,6.66-4.42,10.16-12.75,10.5-3.34,0-8.84.16-16.5.5l-16.5.75c-20.67,1-33.34,1.5-38,1.5l-5,.25c-3,.5-6.59.75-10.75.75-3.84,0-6.62-1.29-8.38-3.88-1.75-2.59-2.79-6.88-3.12-12.88l-.5-13.25c0-5.16-.09-10.16-.25-15-.34-8.66-.42-14.16-.25-16.5,0-2.16.96-4.12,2.88-5.88ZM1234.86,177c.25,7.84.62,13.25,1.12,16.25,7.66-.5,16.75-.84,27.25-1,16-.17,27.16-.59,33.5-1.25l14-1.25c.16-4.5,1.08-14.58,2.75-30.25l-21,.75-10.5.5-8.75.5c-1.84.17-4.67.25-8.5.25l-5.5.25c-9,.34-14.67.42-17,.25-2.67-.16-5.25-1.41-7.75-3.75,0,4.67.12,10.92.38,18.75ZM1313.23,15.5c.16-2.16,1.08-4.04,2.75-5.62,1.66-1.58,3.75-2.38,6.25-2.38,3.16,0,5.54.75,7.12,2.25,1.58,1.5,2.21,4.09,1.88,7.75l-.75,18.25c-.5,10.17-.75,19.92-.75,29.25l.5,16.5c.16,14.5.75,26.5,1.75,36,.33,3-.34,5.42-2,7.25-1.67,1.84-4.09,2.75-7.25,2.75-2.17,0-4.04-.71-5.62-2.12-1.59-1.41-2.54-3.12-2.88-5.12-1.67-11.66-2.5-24.16-2.5-37.5s.5-35.08,1.5-67.25Z"/>
      </g>
      <path class="cls-1" d="M984.77,172.61c-1.25-.72-1.88-1.52-1.88-2.39,0-1.09.83-2.01,2.5-2.77,1.66-.76,3.66-1.18,6-1.25l22.25-.33c9,0,17.83-.11,26.5-.33,3.16-.07,6.91-.11,11.25-.11.83-5,1.41-10.15,1.75-15.44-3.84,0-10.25.07-19.25.22-7.17.22-13.5.33-19,.33-9.34,0-17.67.04-25,.11-2.5,0-4.67-.38-6.5-1.14-1.84-.76-2.75-1.69-2.75-2.77s.79-1.99,2.38-2.72c1.58-.72,3.62-1.16,6.12-1.31l15.75-.22,29-.11c2.33,0,4-.04,5-.11l17.75-.11c10.16,0,15.25,1.99,15.25,5.98,0,1.09-.09,1.78-.25,2.07l-1.5,7.5c0,.8-.17,1.99-.5,3.59,0-.22-.34,1.49-1,5.11,2.16.8,3.25,1.78,3.25,2.94s-.96,2.08-2.88,2.77c-1.92.69-4.54,1.03-7.88,1.03l-9.5.11c-3.17.07-7.92.11-14.25.11l-28.75.54c0,7.54-.17,12.98-.5,16.31l16-.65,18-.76c10.5-.36,16.83-.62,19-.76l2-.11c2.33,0,4.29.24,5.88.71,1.58.47,2.62,1.18,3.12,2.12l.5,1.41c0,.87-.62,1.63-1.88,2.28s-2.79,1.05-4.62,1.2c-14,.87-24.42,1.38-31.25,1.52l-29.5,1.09c-5.5,0-9.46-.65-11.88-1.96-2.42-1.31-3.62-3.3-3.62-5.98l-.25-16.31c-2-.22-3.62-.69-4.88-1.41ZM1107.39,155.75c.33-9.79.66-15.77,1-17.94.16-1.01,1.12-1.85,2.88-2.5s3.79-.98,6.12-.98c2.66,0,5.04.44,7.12,1.31,2.08.87,3.04,1.89,2.88,3.05-.34,1.74-.62,5.55-.88,11.42s-.38,11.09-.38,15.66c9.33-2.54,19-4.75,29-6.63,1.33-.22,2.5-.33,3.5-.33,3.66,0,6.25.73,7.75,2.18.66.51,1,1.12,1,1.85,0,1.74-2,2.9-6,3.48-9.67,1.6-21.42,3.92-35.25,6.96l-.25,2.39c-.17,1.52-.25,3.99-.25,7.4,0,7.83.5,15.73,1.5,23.71.33,1.31-.29,2.36-1.88,3.15-1.59.8-4.04,1.2-7.38,1.2-2,0-3.84-.31-5.5-.92-1.67-.62-2.67-1.36-3-2.23-1.67-5.07-2.5-14.28-2.5-27.62,0-6.6.16-14.79.5-24.58Z"/>
    </g>
  </g>
</svg>