<?xml version="1.0" encoding="UTF-8"?>
<svg id="Layer_1" data-name="Layer 1" xmlns="http://www.w3.org/2000/svg" version="1.1" viewBox="0 0 923 923">
  <defs>
    <style>
      .cls-1 {
        fill: #00a036;
        stroke-width: 0px;
      }
    </style>
  </defs>
  <path class="cls-1" d="M440.1,251.3c-121.3,11.4-212.8,112.7-217,234-.8,14.2-.6,28-.3,42.3.7,25.6,1.3,50.2,2.3,75.7.9,13.4.3,33.9,10.3,42.6,2.9,2.4,6.2,3.9,9.8,5.3,17.4,7.6,69.2,15.3,102.7,18,68.7,5.8,138.1,6.5,206.5,1.6,42-2.7,106.8-11.9,124.7-20.5,14.5-5.4,15.4-13.7,16.9-31.2.6-8.4.9-18.7,1.2-29,1-33.9,2.6-65.5,1.6-99.1-.9-139.5-119.4-251.8-258.5-239.6h-.2ZM475.6,278.5c28.7,2.2,57.9,11.8,83.1,25.1,34.8,18.5,62.5,47.8,81.8,82,22.2,39.6,28.9,85.1,28.5,129.9-.4,28.3,1.2,62.3-7.4,87.4-4.9,14.8-15.8,25.6-30.9,30-35.4,9.5-66.8,10.9-109.5,13.8-58.9,2.8-122.9,2-181.2-4.9-81.2-9.4-87.2-33.1-87-109.8-.3-28.8-.3-58.2,5.6-85.7,7.3-34.1,22.8-66.8,45.3-93.7,41-50.2,106.8-78.8,171.4-74.1h.3Z"/>
  <path class="cls-1" d="M380.6,374c-21,14.9-24.1,47.9-23.9,78.7,0,18,2.3,33.1,8.7,49,6.9,17.8,22,29.9,35.7,10.8,6.6-9.2,10.2-22.6,12.8-36.1,2.3-16.9,2.9-45-1-61.7-4.4-19.5-13.5-45.9-32.2-40.7h-.1Z"/>
  <path class="cls-1" d="M530.5,373.9c-4.9,2.7-9.3,8.9-12.3,13.8-4.3,8.1-6.9,17-9.3,28-3.2,16.7-3.2,41.2-.8,60,10.9,63.3,46,60,55.9.1,3.8-28.2,2.3-75.7-15.9-96.2-2-2.1-4.5-4.7-7.3-5.6-3.1-.9-7.6-.9-10.1-.1h-.2Z"/>
  <path class="cls-1" d="M429.1,583.8c-18.7,1.2-39.8,1.1-58.3,2.5-34.5,2-113,10.8-56.6,21.4,42.1,6.7,72.7,7.7,119.1,8.4,46,.4,98.5,0,133.2-3.3,61.5-4.6,94.9-16.2,6.9-24.7-36.6-3.8-111.5-4.9-144.2-4.3h0Z"/>
</svg>